<svg viewBox="89.7024 73.3184 835.584 788.48" version="1.1" xmlns="http://www.w3.org/2000/svg" style="max-height: 500px" width="700" height="700">
<path fill="#49A078" d="m0 0h1024v1024h-1024z" transform="translate(0)"/>
<path fill="#1F2421" d="m0 0h7l5 6 5 13 3 14 1 1 7-9 9-10 12-9 9-5h6l4 4 1 4 1 14v22l-1 14 14 11 16 8 14 4 14 3 4 4v6l-6 9-12 12-14 7-15 4-14 2 4 3 13 3h72l53-6h39l18 3 15 4 20 7 17 7 16 10 13 11 2 1v2l4 2 12 13 10 13 9 16 6 15 6 21 2 12 2 25-1 24-3 15-7 20-12 22-8 11-14 15-13 11-14 9-15 7-18 6-20 4h-27l-21-3-44-13-14-3h-23l-15 4-14 7-15 11-5 7-5-1-3-4 1-12 4-16 6-16 9-15 9-11 11-11 13-9 16-8 18-6 15-3 28-2-1-10-6-12-26-26-8-14-5-13-2-10-16 6-16 3h-26l-15-2h-9l-8 24-2 11-2 40-1 41v43l-3 7-7 8-9 4h-12l-5-4-1-4 3-5 4-3 12-2h2v-75l1-44 3-20 7-25 3-6v-3l-5-4-1-5 5-5 6 1 12 6 18 5 5 1h27l16-4 19-8 10-5 7-3 5-1-1-5v-11l2-15 6-15 7-10 5-4 7-1 3 6-1 5-8 10-3 6-2 13v14l3 16 5 13 7 11 9 10 11 9 12 9 10 14 5 12 2 8v4l11-7-1-8-2-9v-18l6-18 8-16 7-16 6-9v-11l-5-14-9-15-7-11-3-9-5-2-13-5-18-3-11-1h-20l-59 6-18 1-39 1h-22l-15-3-10-4-11-8-2-2-8 1-13 5-9 6-9 8-7 12-2 7-1 10v9l2 14 5 13 5 10 14 20 6 9 5 12 2 5 2 14v12l-2 12-4 14-1 4-2 29-1 55-4 7-6 5-10 4-8 2h-7l-1-1v-7l4-6 5-4 5-2h3l-1-35v-43l-6-36-3-12-9-20-6-8-12-13-11-14-7-10-9-17-5-15-3-14-1-7v-31l4-22 8-22 8-13 2-3 1-18 4-16 8-16 7-10 9-10 8-8z" transform="translate(286,208)"/>
<path fill="#49A078" d="m0 0 9 5 12 9 15 14 10 12 9 14 7 15 5 15 4 19 1 7v38l-3 19-4 12-8 17-10 15-18 18-16 11-14 7-21 7-12 2h-25l-20-3-32-9-16-5-16-3h-18l-14 2-12 4-12 6h-3l3-9 8-14 12-13 8-7 13-8 13-6 7-3 15-4 18-2h45l11-3 20-9 13-10 3-1 2-4 8-9 11-15 8-13 6-18 2-12v-18l-3-21-4-14-14-29-3-4z" transform="translate(600,372)"/>
<path fill="#49A078" d="m0 0h9l11 2 14 6 11 9 10 7 16 8 15 5 4 1v4l-19 9-18 4-16 3-25 7-16 8-12 11-10 14-6 12-3 11-1 7v11l4 18 4 10 7 13 8 12 5 8-1 2-11-9-11-12-11-13-9-14-7-15-5-18-3-23v-22l6-23 5-12 9-13 9-10 10-8 16-8z" transform="translate(305,267)"/>
<path fill="#49A078" d="m0 0h2l5 13 9 14 8 9 2 1v2l4 2 13 11 8 7 7 9 5 15 1 10-4 2-11 2-6 2h-7l-2-17-5-10-9-10-5-5-12-13-6-7-6-12-3-16 4-4 5-4z" transform="translate(488,441)"/>
<path fill="#1F2421" d="m0 0h90l8 3 2 3v6l-5 4h-92l-7-6 1-7z" transform="translate(697,408)"/>
<path fill="#1F2421" d="m0 0 71 1 24 1 5 5-1 7-3 3h-57l-37-1-5-5-1-9z" transform="translate(696,593)"/>
<path fill="#1F2421" d="m0 0h35l41 1 6 3 1 1-1 7-3 3h-80l-4-3v-8z" transform="translate(717,485)"/>
<path fill="#1F2421" d="m0 0 82 1 5 5-1 5-3 3-37 1h-39l-8-2-3-3v-7z" transform="translate(710,552)"/>
<path fill="#1F2421" d="m0 0h70l18 2 7 2 1 5-1 1-9 1-30 1h-22l-34-1-2-2v-7z" transform="translate(686,624)"/>
<path fill="#1F2421" d="m0 0h55l4 3v6l-3 3-12 1h-64l-3-1-2-5 1-5 3-1z" transform="translate(739,526)"/>
<path fill="#1F2421" d="m0 0h27l36 2 8 2 1 1v6l-5 3-20 2h-23l-23-2-5-5 1-6z" transform="translate(717,449)"/>
<path fill="#49A078" d="m0 0h1l1 5v24l-4 18-5 9-7 8h-2v-18l12-36z" transform="translate(606,437)"/>
<path fill="#1F2421" d="m0 0h16l5 3 4 5v8l-4 4-8 1-8-5-11-1-5-4 1-5 6-5z" transform="translate(318,287)"/>
<path fill="#49A078" d="m0 0h2l5 13 2 8v5l-11 3-14 8-4 2 1-9 8-16 10-13z" transform="translate(284,229)"/>
<path fill="#49A078" d="m0 0 2 1v24l-1 3-6-1-13-4-1-2 7-10 7-7z" transform="translate(338,230)"/>
<path fill="#49A078" d="m0 0 5 5 7 16 1 6v16l-1 7h-2l-7-30-3-14z" transform="translate(304,484)"/>
</svg>